<svg id="sustainability" enable-background="new 0 0 504.445 504.445" height="512" viewBox="0 0 504.445 504.445" width="512" xmlns="http://www.w3.org/2000/svg"><g><path d="m70.748 238.556c.268 0 .539-.014.812-.044 4.118-.443 7.098-4.141 6.654-8.26-.746-6.93-1.124-14.003-1.124-21.021 0-49.422 18.564-94.583 49.073-128.901 29.528.206 54.086 3.068 73.006 8.53 28.702 8.287 42.655 21.58 42.655 40.639 0 22.623-14.433 30.459-31.144 39.531-16.338 8.871-34.856 18.925-34.856 44.469 0 18.579 11.482 31.388 22.588 43.775 9.326 10.403 18.135 20.229 20.098 33.044.567 3.71 3.763 6.366 7.403 6.366.378 0 .761-.029 1.146-.087 4.094-.627 6.905-4.454 6.277-8.549-2.639-17.231-13.857-29.746-23.755-40.787-10.064-11.227-18.757-20.922-18.757-33.762 0-15.817 10.265-22.193 27.014-31.286 17.369-9.43 38.986-21.167 38.986-52.714 0-27.63-20.726-60.26-116.166-63.858 34.526-31.444 80.394-50.641 130.663-50.641 35.265 0 69.794 9.543 99.855 27.599 3.551 2.132 8.156.983 10.291-2.568 2.133-3.551.982-8.158-2.568-10.291-32.394-19.456-69.594-29.74-107.578-29.74-115.371 0-209.232 93.861-209.232 209.231 0 7.552.407 15.165 1.21 22.626.414 3.846 3.665 6.699 7.449 6.699z"/><path d="m400.753 44.827c-3.254-2.564-7.969-2.007-10.533 1.247-2.564 3.253-2.007 7.969 1.246 10.533 5.935 4.679 11.549 9.653 16.832 14.892-25.237 11.279-39.474 28.041-39.474 47.001 0 19.144 7.562 32.573 14.234 44.422 5.776 10.259 10.766 19.119 10.766 30.578 0 8.932-5.217 13.788-14.437 21.6-10.943 9.273-24.563 20.813-24.563 45.4 0 17.016 10.303 52.612 30.63 105.843-28.926 21.086-63.926 34.403-102.006 36.747-4.134.255-7.279 3.812-7.024 7.947.244 3.978 3.547 7.039 7.479 7.039.154 0 .312-.005.468-.014 110.009-6.773 196.182-98.502 196.182-208.83-.002-64.503-29.088-124.426-79.8-164.405zm-2.969 311.734c-18.071-47.81-27.961-81.732-27.961-96.061 0-17.636 9.355-25.563 19.261-33.956 9.252-7.84 19.739-16.726 19.739-33.044 0-15.392-6.454-26.853-12.695-37.938-6.328-11.237-12.305-21.851-12.305-37.062 0-18.503 21.98-30.009 35.35-35.295 29.807 34.833 46.378 79.125 46.378 126.026 0 58.619-26.21 111.573-67.767 147.33z"/><path d="m326.915 285.35c-.818-3.078-3.49-5.304-6.666-5.552-44.08-3.439-83.101 11.424-109.859 41.853-2.735 3.111-2.432 7.85.679 10.585s7.85 2.431 10.585-.679c22.468-25.551 54.964-38.621 91.981-37.127 6.254 31.193-4.994 63.878-29.482 84.518-18.673 15.74-31.011 16.896-46.63 18.361-6.543.614-13.959 1.309-22.258 3.166-4.042.905-6.586 4.915-5.682 8.957.781 3.491 3.879 5.864 7.312 5.864.542 0 1.094-.059 1.645-.183 7.37-1.649 13.985-2.27 20.382-2.869 16.782-1.573 32.634-3.06 54.898-21.826 30.278-25.522 43.268-66.763 33.095-105.068z"/><path d="m207.504 332.048c-6.469-25.505-20.95-48.755-40.776-65.466-3.704-3.123-15.164-12.336-20.238-15.558-3.388-2.15-7.869-1.255-10.168 2.035l-5.323 7.617c-16.212-5.919-63.554-21.295-97.41-12.819-2.647.663-4.726 2.712-5.427 5.35-6.473 24.369-5.569 49.875 2.612 73.76 1.344 3.919 5.608 6.006 9.526 4.665 3.918-1.342 6.007-5.607 4.665-9.526-6.722-19.622-7.874-40.481-3.389-60.615 35.903-6.26 88.839 15 89.391 15.224 3.242 1.322 6.969.219 8.975-2.65l4.33-6.196c4.517 3.426 9.953 7.792 12.788 10.182 26.245 22.121 49.268 65.008 35.268 117.496-11.064-25.159-27.02-58.008-71.628-79.853-3.722-1.823-8.213-.283-10.034 3.437-1.822 3.72-.283 8.213 3.437 10.034 40.132 19.653 54.123 48.787 64.732 72.959-16.055-5.25-29.083-6.484-40.926-7.594-19.851-1.861-35.529-3.331-59.317-23.382-9.756-8.223-17.944-17.915-24.338-28.807-2.097-3.572-6.694-4.767-10.265-2.671-3.572 2.097-4.768 6.693-2.671 10.265 7.258 12.364 16.546 23.36 27.605 32.682 27.38 23.078 46.909 24.909 67.585 26.847 14.396 1.35 29.254 2.748 49.317 11.306v76.174c0 4.142 3.357 7.5 7.5 7.5s7.5-3.358 7.5-7.5v-79.641c11.339-28.264 13.666-57.708 6.679-85.255z"/><path d="m221.196 379.378c1.905 0 3.811-.721 5.272-2.166 24.004-23.729 55.686-42.564 56.003-42.752 3.565-2.107 4.749-6.706 2.643-10.272-2.105-3.565-6.702-4.75-10.271-2.644-1.358.802-33.564 19.934-58.92 45-2.946 2.912-2.974 7.661-.062 10.606 1.469 1.485 3.401 2.228 5.335 2.228z"/></g></svg>